<?xml version="1.0" encoding="UTF-8"?>
<svg width="315" height="260" viewBox="0 0 315 260" xmlns="http://www.w3.org/2000/svg">
  <g fill-rule="nonzero" fill="none">
    <path
      d="M190.1 4.9c20.6 4.5 42.1 13.8 58.4 25.2 11.1 7.9 27.1 23.8 34.8 34.5 18.3 25.8 28.7 57.8 28.8 87.9 0 22.9-9.2 42.8-28.5 61.3-25.9 24.8-64.4 39.9-111.1 43.3-40.8 3-83.3-5.3-115.1-22.6-23.9-13-42-31.7-51.3-52.9l-3.6-8.1v-18c.1-20.2 1.9-32.4 7.6-49.6C27.1 54.4 71.3 15.3 124.3 5c15.1-2.9 14.6-2.8 36.2-2.5 15.6.3 22.1.8 29.6 2.4z"
      stroke="#000" stroke-width="4" fill="#FC0"/>
    <path
      d="M79.3 34.8c-2.8.4-6.1 1.6-7.2 2.6-2.4 2.2-2.7 6.4-.7 9.1 1.3 1.8 3 1.9 26.7 2 21 0 26.9.3 34.2 1.9 4.8 1 8.7 2.1 8.7 2.5-.1.3-3.7 2.8-8 5.6-25.6 16.1-47.2 43.7-57.9 73.8-3.8 10.8-3.9 13-.5 15.6 5.5 4.3 9.2 1.8 12.4-8.4 3.5-11.1 13.3-30.2 20.3-39.5 11.9-15.7 27.5-28.9 44.6-37.5l7.5-3.7 5.5 2.7c10.5 5.1 22.6 13.9 32.1 23.5 14.3 14.2 24.9 31.5 32.1 51.9 3.6 10.4 6.1 13.1 10.7 11.5 1.4-.5 3.3-2.1 4.1-3.5 1.3-2.4 1.2-3.4-1.3-11.1-3.4-10.7-10.7-25.2-18.2-36.5-7.4-11.3-27.1-31-38.1-38.3-5.2-3.4-7.8-5.7-7-6.1 5.2-3 31.3-4.9 49.1-3.7 13.6.9 13.9.9 16.2-1.3 3-2.9 3.1-6.3.1-9.3-2.1-2.1-3.8-2.5-12.2-3.1-22.9-1.7-48.5.9-65.9 6.8l-7 2.3-8.3-2.8c-15.2-5.3-25.9-6.9-47.3-7.3-10.7-.2-21.8 0-24.7.3z"
      fill="#000"/>
  </g>
</svg>
